/* XPM */
static char *_4577d18b85a4064910d05c933abed7dTXK1zYxwSMz6aM8S[] = {
/* columns rows colors chars-per-pixel */
"40 40 208 2 ",
"   c None",
".  c #020102",
"X  c #0A0009",
"o  c #160016",
"O  c #001D1D",
"+  c #091818",
"@  c #161D1D",
"#  c #020E11",
"$  c #171E33",
"%  c #2A0029",
"&  c #320133",
"*  c #390037",
"=  c #25163B",
"-  c #002727",
";  c #01383C",
":  c #410039",
">  c #043E45",
",  c #23385B",
"<  c #490248",
"1  c #5B0056",
"2  c #5B005B",
"3  c #550055",
"4  c #5D186F",
"5  c #680067",
"6  c #7E007E",
"7  c #73006A",
"8  c #014D4C",
"9  c #014747",
"0  c #015252",
"q  c #085A58",
"w  c #005247",
"e  c #345151",
"r  c #007C7C",
"t  c #586E6E",
"y  c #82007C",
"u  c #5E3795",
"i  c #3E5EA0",
"p  c #7857D1",
"a  c #6D6FDC",
"s  c #7B6FEB",
"d  c #850085",
"f  c #890586",
"g  c #9B009B",
"h  c #A4009E",
"j  c #8E13A3",
"k  c #AB00AB",
"l  c #A602A7",
"z  c #B300B1",
"x  c #BD00B9",
"c  c #B300AF",
"v  c #CB00BE",
"b  c #8C5EA0",
"n  c #BC08C5",
"m  c #AA1DC6",
"M  c #B21BCE",
"N  c #BE1BC7",
"B  c #9836CD",
"V  c #9C37D4",
"C  c #B030CE",
"Z  c #B238EB",
"A  c #C401C4",
"S  c #CA00CA",
"D  c #C308CA",
"F  c #D400CD",
"G  c #D300C4",
"H  c #C319C8",
"J  c #C60BD3",
"K  c #D400D3",
"L  c #DA00D3",
"P  c #DC00DB",
"I  c #D509D7",
"U  c #C916D7",
"Y  c #E400DE",
"T  c #E800DF",
"R  c #D22FDB",
"E  c #DB05E1",
"W  c #C81DE4",
"Q  c #D816E3",
"!  c #E300E3",
"~  c #EA00E5",
"^  c #E50DE5",
"/  c #EC00EC",
"(  c #EA09EC",
")  c #F301ED",
"_  c #F400E9",
"`  c #F117EE",
"'  c #EE07F4",
"]  c #F401F3",
"[  c #FE01FE",
"{  c #FF0CFF",
"}  c #F805F9",
"|  c #E71CFC",
" . c #FE13FE",
".. c #FE1CFE",
"X. c #F010FF",
"o. c #E113E2",
"O. c #C228EB",
"+. c #C936FE",
"@. c #FF22FF",
"#. c #FF2CFF",
"$. c #F82BF9",
"%. c #FE32FE",
"&. c #FF3BFF",
"*. c #E92EF1",
"=. c #8842CB",
"-. c #8D45D3",
";. c #864CD2",
":. c #9448D9",
">. c #865ADD",
",. c #B254D7",
"<. c #B171DC",
"1. c #895DE9",
"2. c #9654EB",
"3. c #935EF6",
"4. c #A545EA",
"5. c #B052F7",
"6. c #906FFF",
"7. c #8776FD",
"8. c #BC63EC",
"9. c #D356EF",
"0. c #FF45FF",
"q. c #FF4CFF",
"w. c #E35CF6",
"e. c #FE52FD",
"r. c #FD5AFF",
"t. c #E544EE",
"y. c #D674F1",
"u. c #D768EF",
"i. c #FD62FD",
"p. c #FF68FF",
"a. c #FF74FF",
"s. c #FF7BFF",
"d. c #E47CFF",
"f. c #008888",
"g. c #009B97",
"h. c #338383",
"j. c #01A6A6",
"k. c #0EB7B7",
"l. c #27BDBC",
"z. c #669696",
"x. c #698E88",
"c. c #45BCBA",
"v. c #7BA7A4",
"b. c #68B5B1",
"n. c #339DD0",
"m. c #33B3EC",
"M. c #5B87E8",
"N. c #4C9BEE",
"B. c #6987E2",
"V. c #788AE2",
"C. c #669CEB",
"Z. c #618DF2",
"A. c #43A8EB",
"S. c #53BCFF",
"D. c #6DB8F1",
"F. c #1BC2DC",
"G. c #00DCDC",
"H. c #0AD0D0",
"J. c #37D5D5",
"K. c #1DDDF9",
"L. c #2EC8F4",
"P. c #35C6F9",
"I. c #31D0F2",
"U. c #00E6E5",
"Y. c #15E8FC",
"T. c #15F5FD",
"R. c #2AF0FB",
"E. c #53C2CC",
"W. c #54C5EE",
"Q. c #79C5FC",
"!. c #75D5FF",
"~. c #61C4F9",
"^. c #59EDED",
"/. c #68EAF8",
"(. c #72F4F3",
"). c #869CAC",
"_. c #8EBAB7",
"`. c #9B97F6",
"'. c #948AF6",
"]. c #B292ED",
"[. c #9EBFFF",
"{. c #9EACFF",
"}. c #B7ACF5",
"|. c #C989EA",
" X c #CE8CF8",
".X c #DA86FF",
"XX c #FF83FF",
"oX c #FE8BFF",
"OX c #FF94FF",
"+X c #FE9BFF",
"@X c #CBA8F3",
"#X c #FFABFF",
"$X c #FFA5FF",
"%X c #FFBBFF",
"&X c #FFB6FF",
"*X c #93DDDD",
"=X c #8FDDFF",
"-X c #8DE8F9",
";X c #96EFFF",
":X c #B0ECF4",
">X c #C5C4F6",
",X c #FFC9FF",
"<X c #FFD6FF",
"1X c #FFDCFF",
"2X c #FFE2FF",
"3X c #FFE9FF",
"4X c #FFFDFF",
"5X c #FFF0FF",
/* pixels */
"                                                                                ",
"                                                                                ",
"                                                                                ",
"                                                                                ",
"          O                       o o o o o o o                                 ",
"        O H.8 . .           . . . 2 k k k k k 6 X . .       . . . # .           ",
"          9 z.c.f.X     . % d d f k ! / P S F A d d f < . @ )._.c.k.j.#         ",
"        @ t /.J.f.r o : 1 u K P Y / ] ] ] P K ! ! P I g 3 4 ^.b.h.f.f.r ;       ",
"        @ :XE.w - j.q j L K / ! } [ ] / ] / ! / [ / / P U ,.A.; . . O U.8 .     ",
"        @ *Xe # . $ F.6.P / } ^ ] / / [ / } [ [ [ [ [ ( 9.>XH < . . O G.8 .     ",
"        - H.8 . & k m m.7.[  .r.@.[ [ [ [ [ ] ! ! ! ! y.}.H L x 1 . - G.8       ",
"        O G.8 : l P L B 8.r.r.#.{ [ ..q.{ [ [ / E ] [ '.W.A P Y c u j.0 -       ",
"        O U.w 1 F ! / ~ ` q.0.&.{ [ #.a.{ [ @.%.) ] 3.M.p v P E L >.U.O         ",
"        O j., y K Y ] [ [ [ #.XX0.{  .e.#.@.q.0.} 5.A.1.L I P Y P V n.+         ",
"          . d K P ! ^ ] [ %.OX%XOXq. ...a.a.%.[ | P.-.Y [ [ ~ E ! I k o         ",
"          . f S S ^ i.@.%.+X3X,XOXOX+Xa.XX%.[ [ } M J P ( [ [ / P P k o         ",
"          . d K P } a.p.p.#X4X3X2X3X2X#XXX..[ ..r.) } w.>X@XI F A S k o         ",
"        o 2 k P ! ' &.oX&X%X,X4X<X,X2X2X#Xr... .&.[ [ t. X|.].V.B v x 5 %       ",
"        o k K ! ~ ~ [ s.1X1X#X3X+X$X1X<X&Xs.#.[ [ @.#.` ! ^ @X~.M.;.-.A * .     ",
"        o k A E ' O. .e.+X,X3X%XoX&X<XXXa.@.[ [  .i.a.*.~ } Y T s T.K.B & .     ",
"        o k I Y 4.P..X@.0.oXoXoXXXoXoXa...} [ [ [ {  .' ! ! ! ! n <.;XK.> .     ",
"        o k |.=XN.:.$.{  ...#.+XXX{.!.+X .0.%.[ [ [ ) ! ! ] ! Y 1.C.9.-.= .     ",
"        o c w.=XD.G $. .[ ...X=X!.!.[.OX .#.0.q.&.[ ! ! ] [ ! u.`.3.v 7 %       ",
"        o y L w.].>.}.*... X(.L.m.`.a.q.{ [ #.r.r.5.9.*.] ] K |.w./ l o         ",
"          . f Y 4.K.K.2.y.-XL.M A t.r.[ [ [ X.| +.P.-X<.N P A A K P k o         ",
"          . d K Q U M m.B.N M ] e.0.[ [ [ [ 6.Y.P.V N B.A.D P P ! P l o         ",
"            % 6 K ! Y Z O.L P [ @. .[ [ [ [ O.p -.! T M.R.@XQ F S g *           ",
"            . 2 F K K ~ _ E ! / } ] ) ) ) ] ~ F L [ / Z D./.Q L K d .           ",
"            . * j :.D P ! / ! ~ [ ) ~ P 4.2.C P / ] ! _ 4.Y.8.Q z 5 .           ",
"            O + q F.U E ] ] ! [ [  .| Z L.Y.a P ] ! Y ) 5.T.:XC 1 .             ",
"          . j.^.v.$ k P / ] ! } _ u.-XL.V m J P ! ! P ~ 4.K.C < X               ",
"            ; l.l.. & h L R }.S.P.V.,.-.x K P P S S Y 1.N.p : o                 ",
"            . h.c.. . i '.@X:XC.C.:.F L K P ! L A A K `.E.5 X                   ",
"              t z.0 0 g.c._.).f y c P P P P P A d d d b x..                     ",
"                9 G.G.8 . . # . . 2 c k k k k d . . . X .                       ",
"                  O O             o o o o o o o                                 ",
"                                                                                ",
"                                                                                ",
"                                                                                ",
"                                                                                "
};
