/* XPM */
static char *_275a0e9e77a45ab9f6100a0ee2768ademz9sBlYE4kOgtc3[] = {
/* columns rows colors chars-per-pixel */
"40 40 208 2 ",
"   c None",
".  c #020102",
"X  c #0A0009",
"o  c #160016",
"O  c #001D1D",
"+  c #091818",
"@  c #161D1D",
"#  c #020E11",
"$  c #171E33",
"%  c #2A0029",
"&  c #320133",
"*  c #390037",
"=  c #25163B",
"-  c #002727",
";  c #01383C",
":  c #410039",
">  c #043E45",
",  c #23385B",
"<  c #490248",
"1  c #5B0056",
"2  c #5B005B",
"3  c #550055",
"4  c #5D186F",
"5  c #680067",
"6  c #7E007E",
"7  c #73006A",
"8  c #014D4C",
"9  c #014747",
"0  c #015252",
"q  c #085A58",
"w  c #005247",
"e  c #345151",
"r  c #007C7C",
"t  c #586E6E",
"y  c #82007C",
"u  c #5E3795",
"i  c #3E5EA0",
"p  c #7857D1",
"a  c #6D6FDC",
"s  c #7B6FEB",
"d  c #850085",
"f  c #890586",
"g  c #9B009B",
"h  c #A4009E",
"j  c #8E13A3",
"k  c #AB00AB",
"l  c #A602A7",
"z  c #B300B1",
"x  c #BD00B9",
"c  c #B300AF",
"v  c #CB00BE",
"b  c #8C5EA0",
"n  c #BC08C5",
"m  c #AA1DC6",
"M  c #B21BCE",
"N  c #BE1BC7",
"B  c #9836CD",
"V  c #9C37D4",
"C  c #B030CE",
"Z  c #B238EB",
"A  c #C401C4",
"S  c #CA00CA",
"D  c #C308CA",
"F  c #D400CD",
"G  c #D300C4",
"H  c #C319C8",
"J  c #C60BD3",
"K  c #D400D3",
"L  c #DA00D3",
"P  c #DC00DB",
"I  c #D509D7",
"U  c #C916D7",
"Y  c #E400DE",
"T  c #E800DF",
"R  c #D22FDB",
"E  c #DB05E1",
"W  c #C81DE4",
"Q  c #D816E3",
"!  c #E300E3",
"~  c #EA00E5",
"^  c #E50DE5",
"/  c #EC00EC",
"(  c #EA09EC",
")  c #F301ED",
"_  c #F400E9",
"`  c #F117EE",
"'  c #EE07F4",
"]  c #F401F3",
"[  c #FE01FE",
"{  c #FF0CFF",
"}  c #F805F9",
"|  c #E71CFC",
" . c #FE13FE",
".. c #FE1CFE",
"X. c #F010FF",
"o. c #E113E2",
"O. c #C228EB",
"+. c #C936FE",
"@. c #FF22FF",
"#. c #FF2CFF",
"$. c #F82BF9",
"%. c #FE32FE",
"&. c #FF3BFF",
"*. c #E92EF1",
"=. c #8842CB",
"-. c #8D45D3",
";. c #864CD2",
":. c #9448D9",
">. c #865ADD",
",. c #B254D7",
"<. c #B171DC",
"1. c #895DE9",
"2. c #9654EB",
"3. c #935EF6",
"4. c #A545EA",
"5. c #B052F7",
"6. c #906FFF",
"7. c #8776FD",
"8. c #BC63EC",
"9. c #D356EF",
"0. c #FF45FF",
"q. c #FF4CFF",
"w. c #E35CF6",
"e. c #FE52FD",
"r. c #FD5AFF",
"t. c #E544EE",
"y. c #D674F1",
"u. c #D768EF",
"i. c #FD62FD",
"p. c #FF68FF",
"a. c #FF74FF",
"s. c #FF7BFF",
"d. c #E47CFF",
"f. c #008888",
"g. c #009B97",
"h. c #338383",
"j. c #01A6A6",
"k. c #0EB7B7",
"l. c #27BDBC",
"z. c #669696",
"x. c #698E88",
"c. c #45BCBA",
"v. c #7BA7A4",
"b. c #68B5B1",
"n. c #339DD0",
"m. c #33B3EC",
"M. c #5B87E8",
"N. c #4C9BEE",
"B. c #6987E2",
"V. c #788AE2",
"C. c #669CEB",
"Z. c #618DF2",
"A. c #43A8EB",
"S. c #53BCFF",
"D. c #6DB8F1",
"F. c #1BC2DC",
"G. c #00DCDC",
"H. c #0AD0D0",
"J. c #37D5D5",
"K. c #1DDDF9",
"L. c #2EC8F4",
"P. c #35C6F9",
"I. c #31D0F2",
"U. c #00E6E5",
"Y. c #15E8FC",
"T. c #15F5FD",
"R. c #2AF0FB",
"E. c #53C2CC",
"W. c #54C5EE",
"Q. c #79C5FC",
"!. c #75D5FF",
"~. c #61C4F9",
"^. c #59EDED",
"/. c #68EAF8",
"(. c #72F4F3",
"). c #869CAC",
"_. c #8EBAB7",
"`. c #9B97F6",
"'. c #948AF6",
"]. c #B292ED",
"[. c #9EBFFF",
"{. c #9EACFF",
"}. c #B7ACF5",
"|. c #C989EA",
" X c #CE8CF8",
".X c #DA86FF",
"XX c #FF83FF",
"oX c #FE8BFF",
"OX c #FF94FF",
"+X c #FE9BFF",
"@X c #CBA8F3",
"#X c #FFABFF",
"$X c #FFA5FF",
"%X c #FFBBFF",
"&X c #FFB6FF",
"*X c #93DDDD",
"=X c #8FDDFF",
"-X c #8DE8F9",
";X c #96EFFF",
":X c #B0ECF4",
">X c #C5C4F6",
",X c #FFC9FF",
"<X c #FFD6FF",
"1X c #FFDCFF",
"2X c #FFE2FF",
"3X c #FFE9FF",
"4X c #FFFDFF",
"5X c #FFF0FF",
/* pixels */
"                                                                                ",
"                                                                                ",
"                                                                                ",
"                                                                                ",
"                                o o o o o o o             - O                   ",
"                      X . . . X 6 z k k k k 2 . . . . . 9 G.G.9                 ",
"                    . x.b d d d A E P P P P z f f )._.c.g.8 8 z.t               ",
"                  X 2 E.`.L A A L ! P K L F :.M.D.:X@X'.i . . E.h..             ",
"                o < =.A.1.Y A S I P K x B ,.V.P.S.@XR L h & . l.l.;             ",
"              X < B Y.4.~ ! Y ! E J m B L.;Xu./ } ^ } ] P k $ v.^.j..           ",
"            . 2 C :XT.5._ P ! } L a Y.L.Z | { [ [ ! } ] P W F.q + O             ",
"          . 5 z Q 9.Y.4._ ~ ] / ! M 2.4.P Y ] } ! E ! ! L D -.j * .             ",
"          . d K L Q /.D.Z ! [ L K T _ _ _ / ] [ / ! Y _ / K L F 2 .             ",
"          * h S F Q @XR.M.Y ~ -.>.Z [ [ [ [  ...[ P L Z Z Y ! K 6 %             ",
"        o k L E P P D A.B.D B L.Y.6.[ [ [ { 0.e.' M N B.A.m O.P P d .           ",
"        o k P K D A P n ].-XL.+.| X.[ [ } e.t.A M L.-Xy.2.K.K.4.L d X           ",
"        X l _ w.].P ] ) *.9.5.r.r.#.[ { q.a.`.m.L.(. XX.*.}.>.].w.L 6 o         ",
"      % 7 A 3.`.u.! [ } ! / [ &.0.0.%. .OX[.Q.!.-X.X..[  .#.v Q.=X9.k o         ",
"    . = :.9.C.s T Y ] ~ ! / [ [ [ %.0. .+X!.{.oX+X#.@. .[ $.-.N.=Xy.k o         ",
"    X 9 K.;X,.J ! Y ! Y ' {  .[ [ [ [ ..a.oXoXXXoXoXoX0.#..XP.4.! I k o         ",
"    . * B K.T.s Y ~ ] ! *.s.i.{ [ [ @.a.XX<X&XoX%X3X,XOXe. .W ' ! A k o         ",
"    . * A -.;.M.~.@X^ ~ ` #.@.[ [ #.s.&X<X<X$X+X3X&X1X<Xs.[ ! ~ ! K k o         ",
"      % 5 z v B V.]. X|.t.[ [ &. ...i.$X1X3X,X1X4X,X,X&XoX&.] ! P z 2 o         ",
"        o l D G G Q @X>Xw.] ) e...[ @.XX#X1X3X2X3X4X$Xp.i.s. .! S d .           ",
"        o k L E ! [ [ ( ! J M } [ [ %.s.a.+XOXOX,X3X+X%...i.Y D A d .           ",
"        o k P ! ! ! [ [ Y -.P.| [ &.s.p... .0.OX%XoX&.[ } ^ ! P L d X           ",
"        + n.V P ! P K I >.N.4.} 0.0.#.#.e. .{ 0.XX$.[ { [ ] ! K y , j.O         ",
"        O U.>.L ! L n p Z.6.] ) %.@.[ { s.#.[ { &.&.0.` ! ] ! K 1 w U.O         ",
"      - 0 j.u c P P A W.'.[ ] E / } [ { q...[ { #.r.r.8.B I L l : 8 G.O         ",
"      8 G.- . 3 x L H @Xy.! ~ ~ ! ] [ [ [ } [ @.r. .[ 7.A.m k & . 8 G.@         ",
"    . 8 G.O . . < H >X9.( [ } [ } [ ] / } / ] ] ^ [ / E 3.F.$ . . e *X@         ",
"    . 9 U.O . . ; A.,.U P / / [ ] / / ] / ] [ } ! ~ K I j q j.- 8 J.:X@         ",
"      ; r f.f.h.b./.4 1 g I P ! ! K L ] ] ] / ! K K d 2 < # r f.J./.t @         ",
"        O j.k.l._.).@ . < f d d A K S E / E k d d d % .     . f.c.z.9           ",
"          . . . . .       . . . y k k k k k 2 . . .           . . 8 k.-         ",
"                                o o o o o o o                       O           ",
"                                                                                ",
"                                                                                ",
"                                                                                ",
"                                                                                "
};
