/* XPM */
static char *_243141c50494ec6a420ba5262e9c5fbeE5fBipLVeAI5Bfh[] = {
/* columns rows colors chars-per-pixel */
"40 40 208 2 ",
"   c None",
".  c #020102",
"X  c #0A0009",
"o  c #160016",
"O  c #001D1D",
"+  c #091818",
"@  c #161D1D",
"#  c #020E11",
"$  c #171E33",
"%  c #2A0029",
"&  c #320133",
"*  c #390037",
"=  c #25163B",
"-  c #002727",
";  c #01383C",
":  c #410039",
">  c #043E45",
",  c #23385B",
"<  c #490248",
"1  c #5B0056",
"2  c #5B005B",
"3  c #550055",
"4  c #5D186F",
"5  c #680067",
"6  c #7E007E",
"7  c #73006A",
"8  c #014D4C",
"9  c #014747",
"0  c #015252",
"q  c #085A58",
"w  c #005247",
"e  c #345151",
"r  c #007C7C",
"t  c #586E6E",
"y  c #82007C",
"u  c #5E3795",
"i  c #3E5EA0",
"p  c #7857D1",
"a  c #6D6FDC",
"s  c #7B6FEB",
"d  c #850085",
"f  c #890586",
"g  c #9B009B",
"h  c #A4009E",
"j  c #8E13A3",
"k  c #AB00AB",
"l  c #A602A7",
"z  c #B300B1",
"x  c #BD00B9",
"c  c #B300AF",
"v  c #CB00BE",
"b  c #8C5EA0",
"n  c #BC08C5",
"m  c #AA1DC6",
"M  c #B21BCE",
"N  c #BE1BC7",
"B  c #9836CD",
"V  c #9C37D4",
"C  c #B030CE",
"Z  c #B238EB",
"A  c #C401C4",
"S  c #CA00CA",
"D  c #C308CA",
"F  c #D400CD",
"G  c #D300C4",
"H  c #C319C8",
"J  c #C60BD3",
"K  c #D400D3",
"L  c #DA00D3",
"P  c #DC00DB",
"I  c #D509D7",
"U  c #C916D7",
"Y  c #E400DE",
"T  c #E800DF",
"R  c #D22FDB",
"E  c #DB05E1",
"W  c #C81DE4",
"Q  c #D816E3",
"!  c #E300E3",
"~  c #EA00E5",
"^  c #E50DE5",
"/  c #EC00EC",
"(  c #EA09EC",
")  c #F301ED",
"_  c #F400E9",
"`  c #F117EE",
"'  c #EE07F4",
"]  c #F401F3",
"[  c #FE01FE",
"{  c #FF0CFF",
"}  c #F805F9",
"|  c #E71CFC",
" . c #FE13FE",
".. c #FE1CFE",
"X. c #F010FF",
"o. c #E113E2",
"O. c #C228EB",
"+. c #C936FE",
"@. c #FF22FF",
"#. c #FF2CFF",
"$. c #F82BF9",
"%. c #FE32FE",
"&. c #FF3BFF",
"*. c #E92EF1",
"=. c #8842CB",
"-. c #8D45D3",
";. c #864CD2",
":. c #9448D9",
">. c #865ADD",
",. c #B254D7",
"<. c #B171DC",
"1. c #895DE9",
"2. c #9654EB",
"3. c #935EF6",
"4. c #A545EA",
"5. c #B052F7",
"6. c #906FFF",
"7. c #8776FD",
"8. c #BC63EC",
"9. c #D356EF",
"0. c #FF45FF",
"q. c #FF4CFF",
"w. c #E35CF6",
"e. c #FE52FD",
"r. c #FD5AFF",
"t. c #E544EE",
"y. c #D674F1",
"u. c #D768EF",
"i. c #FD62FD",
"p. c #FF68FF",
"a. c #FF74FF",
"s. c #FF7BFF",
"d. c #E47CFF",
"f. c #008888",
"g. c #009B97",
"h. c #338383",
"j. c #01A6A6",
"k. c #0EB7B7",
"l. c #27BDBC",
"z. c #669696",
"x. c #698E88",
"c. c #45BCBA",
"v. c #7BA7A4",
"b. c #68B5B1",
"n. c #339DD0",
"m. c #33B3EC",
"M. c #5B87E8",
"N. c #4C9BEE",
"B. c #6987E2",
"V. c #788AE2",
"C. c #669CEB",
"Z. c #618DF2",
"A. c #43A8EB",
"S. c #53BCFF",
"D. c #6DB8F1",
"F. c #1BC2DC",
"G. c #00DCDC",
"H. c #0AD0D0",
"J. c #37D5D5",
"K. c #1DDDF9",
"L. c #2EC8F4",
"P. c #35C6F9",
"I. c #31D0F2",
"U. c #00E6E5",
"Y. c #15E8FC",
"T. c #15F5FD",
"R. c #2AF0FB",
"E. c #53C2CC",
"W. c #54C5EE",
"Q. c #79C5FC",
"!. c #75D5FF",
"~. c #61C4F9",
"^. c #59EDED",
"/. c #68EAF8",
"(. c #72F4F3",
"). c #869CAC",
"_. c #8EBAB7",
"`. c #9B97F6",
"'. c #948AF6",
"]. c #B292ED",
"[. c #9EBFFF",
"{. c #9EACFF",
"}. c #B7ACF5",
"|. c #C989EA",
" X c #CE8CF8",
".X c #DA86FF",
"XX c #FF83FF",
"oX c #FE8BFF",
"OX c #FF94FF",
"+X c #FE9BFF",
"@X c #CBA8F3",
"#X c #FFABFF",
"$X c #FFA5FF",
"%X c #FFBBFF",
"&X c #FFB6FF",
"*X c #93DDDD",
"=X c #8FDDFF",
"-X c #8DE8F9",
";X c #96EFFF",
":X c #B0ECF4",
">X c #C5C4F6",
",X c #FFC9FF",
"<X c #FFD6FF",
"1X c #FFDCFF",
"2X c #FFE2FF",
"3X c #FFE9FF",
"4X c #FFFDFF",
"5X c #FFF0FF",
/* pixels */
"                                                                                ",
"                                                                                ",
"                                                                                ",
"                                                                                ",
"                                o o o o o o o       + - O - @ @ @   O           ",
"                  .         . . u z k k k c 2 . . . j.U.G.G.*X:Xt 9 H.O         ",
"              . ; g.O . . % d d L w.|.L A K c d d d , w w 8 e E./.x.8           ",
"            t h.l.^.+ : 2 y K P t.=X=XT Y Y P K S K y 1 : . . w J.c..           ",
"          8 z.c.l.v.q j F L E 4.].Q.N.4.' ~ ! P S P K K l & . - f.f..           ",
"        O G.0 . X $ F.;.F ! W K.>.G :.P.O.! ]  .^ ! ! ! K k $ j.r .             ",
"        O G.0 . & k U J K P m K.}.$.$.d. .[ &.a.i.^ ] ] L m F.q #               ",
"          w g.i h P Y I ) Z m.2.*. .{ @.e.s.XXp.@.] [ ! B m.6.j <               ",
"          . c.`.K ) ] ! / O.B.y.` [  .0.+X1X%Xp.%.[ [ ` 9.7.I L 2 .             ",
"          . _.@XR } ] / E K N -X X .@.oX,X1X%X#X+X%.{ 0.r.} ) K 6 %             ",
"          . ).:X}.E ! ! ! P M L.(..X#.oX3X#X,X4X3XOX#.&.r. .[ ! K d .           ",
"          . f C.~.} [ ! ) [ ) M P.=X+XoX%X2X4X3X,X%XXX&.#.i.( ! P d .           ",
"          . f M.m.~ [ } ] @.e.A m.!.oXXXoX+X<X2XOXOX0.{ { @.} ] ! d .           ",
"        o 2 c :.'.y.{ ] ]  .0.t.`.!.{.oX%X$X,X3X+X0.{ [ [ [ ] [ / k 2 o         ",
"        o c P F ,.-X| ~ ) [ { e.a.[.!.oX<X<X2X1X+X . .#...[ / ] ] ! c o         ",
"        o k P K =.L.Z P ] [ [ [ e.OX+Xa.XX1X1X#Xa...e.s.q.[ } / ) / k o         ",
"        o k P K n B L.4.) [ [ [ }  . ...a.&X#XXXs.a.#.{ { [ / ] ) P k o         ",
"        o k P P F m Y.2.) [ [ [ [ #.0.[ @.a.i...#.s.@.[ [ [ } / P S k o         ",
"        o k P ! P J a C T O.6.X.#.0.&.[ [ #...[ [ &.0.@.} ] [ ! L F z o         ",
"        o 6 A P P E L E F p Y.| r.0.[ [ [ [  .@.[ [ 0.%.) ! } ] T v u o         ",
"          . f S S ! } / L -.L.+.r.&.[ [  .[ &.e.} | { ] ! ! } [ ! d .           ",
"          . d A S ! ! ] [ ! B m.5.[ [ { p.@.[ ' M P.4.} ] ! [ / P d .           ",
"          . d K Y P Y ~ / Y H -X9./ ]  .a.#.[ ] J -.A.3.} ! [ / I f .           ",
"          . b `.1.~ _ ~ Z M.B.].*.! ! ` *.( 0.w.! Y 1.M.'.y.( P g <             ",
"          . x.E.A.4.5.5.D.R.A.n ] } ! ! / ! |.>X/ [ L p W.@X9.U 3 .             ",
"            . 5 =.K.T.Y./.@XD P ] [ ] ! } ^ |.@X[ } K A A H >X,.4 @             ",
"              X < B :X8.W Q L A P ! ! Y Y @X|.U [ ! P P Y I N A./.v..           ",
"                o < C o.L K P A |.u.Y E Y ~.B.F ! ! ! ! P x < ; b._..           ",
"                  X 1 z K S ! I w.`.1.n s M.=.S E ! L F z 3 . . h.c..           ",
"                    . 5 d g P P _ 6.C.,.T.;.v S P P V >.u . . . f.k..           ",
"                      . . * l k k v 9.;XR.B z l k k n.U.j.- O O f.j.#           ",
"                            o o X 7 :.K.B n 5 o o o + + 0 G.G.U.r #             ",
"                                  % = > & * %           - 8 8 8 ;               ",
"                                    . . . .                 . .                 ",
"                                                                                ",
"                                                                                "
};
