/* XPM */
static char *_3e815eb3571466790f6d3aaa705ca55xhYXhMJ4Fo87PJln[] = {
/* columns rows colors chars-per-pixel */
"40 40 145 2 ",
"   c None",
".  c #020000",
"X  c #030000",
"o  c #040000",
"O  c #050000",
"+  c #060000",
"@  c #070000",
"#  c #080000",
"$  c #090000",
"%  c #0A0000",
"&  c #0B0000",
"*  c #0C0000",
"=  c #0D0000",
"-  c #0C0100",
";  c #0E0000",
":  c #0F0000",
">  c #0E0100",
",  c #100000",
"<  c #110000",
"1  c #100100",
"2  c #110100",
"3  c #120000",
"4  c #130000",
"5  c #110200",
"6  c #140000",
"7  c #150000",
"8  c #140100",
"9  c #160000",
"0  c #170000",
"q  c #160100",
"w  c #170100",
"e  c #160200",
"r  c #170200",
"t  c #180000",
"y  c #190000",
"u  c #180100",
"i  c #1A0000",
"p  c #1B0000",
"a  c #180200",
"s  c #190200",
"d  c #1A0200",
"f  c #1D0000",
"g  c #1E0000",
"h  c #1F0000",
"j  c #180600",
"k  c #200000",
"l  c #210000",
"z  c #220000",
"x  c #230000",
"c  c #220100",
"v  c #230100",
"b  c #230200",
"n  c #220300",
"m  c #230300",
"M  c #240000",
"N  c #250000",
"B  c #240100",
"V  c #260000",
"C  c #270000",
"Z  c #240200",
"A  c #250200",
"S  c #270200",
"D  c #230400",
"F  c #280000",
"G  c #290000",
"H  c #2A0000",
"J  c #2B0000",
"K  c #2C0000",
"L  c #2D0000",
"P  c #2C0100",
"I  c #2D0100",
"U  c #2E0000",
"Y  c #2F0000",
"T  c #2D0200",
"R  c #2D0300",
"E  c #2B0600",
"W  c #2D0400",
"Q  c #2C0500",
"!  c #2D0500",
"~  c #2C0600",
"^  c #2D0600",
"/  c #300000",
"(  c #3E1906",
")  c #470600",
"_  c #470800",
"`  c #4B0800",
"'  c #530800",
"]  c #401F06",
"[  c #5C1100",
"{  c #661600",
"}  c #701A00",
"|  c #751B00",
" . c #7C1E00",
".. c #7C1F00",
"X. c #50280A",
"o. c #522E10",
"O. c #513314",
"+. c #7F2A03",
"@. c #7F2E04",
"#. c #634014",
"$. c #7E6930",
"%. c #821F00",
"&. c #831F00",
"*. c #812000",
"=. c #812100",
"-. c #803D0C",
";. c #A42C01",
":. c #A52D01",
">. c #A72D01",
",. c #A92D00",
"<. c #A82D01",
"1. c #AB2E01",
"2. c #AC2E00",
"3. c #AB3001",
"4. c #AC3001",
"5. c #AF4106",
"6. c #AD440A",
"7. c #B0470C",
"8. c #B8661E",
"9. c #8A6424",
"0. c #8C6525",
"q. c #8E6624",
"w. c #916625",
"e. c #926528",
"r. c #916D29",
"t. c #937330",
"y. c #957C36",
"u. c #B86D24",
"i. c #BE8032",
"p. c #BF9339",
"a. c #C28D35",
"s. c #C69A3D",
"d. c #C89C3E",
"f. c #9C8740",
"g. c #968840",
"h. c #9C9043",
"j. c #9E9346",
"k. c #C49F44",
"l. c #C0A449",
"z. c #C8AC4C",
"x. c #CBB04F",
"c. c #CBB253",
"v. c #C7BA5B",
"b. c #D1C661",
"n. c #D3C862",
/* pixels */
"                                      / /                                       ",
"                                  I / I I G M                                   ",
"                              : M I I g t k k g <                               ",
"                          g : + : t < $ $ $ < + $ : k                           ",
"                      t M k t : : < 9 < $ $ + $ < M / I I                       ",
"                  $ $ + 9 9 : $ : < 9 9 < < : < 9 g G I ~ ~ ~                   ",
"              $ + $ : < < 9 < : < 9 9 9 < $ $ : t M I I I ~ ~ ~ ~               ",
"          t 9 < : < g k g t k M g t g k k 9 : t k G I I ~ ~ ~ ~ I I /           ",
"      $ + : 9 g k k M M I G G M G I I M g < : 9 k G I I I I I I I I G M M       ",
"    + + + : 9 g k M M M I I I I I I G G t : + + : g I I I I I / I I G M t :     ",
"    + . $ 9 t g G G M M G I I I / I G M k g < : $ : 9 k I I G G I I k : + $     ",
"    + . : < t G I I I I / I I I I I I I M t < < $ < 9 < < t k k t : + . + +     ",
"    < $ : < 9 t k M E ~ I I ~ ~ ~ I I / I G k : $ $ < : $ $ < : + . + + + $     ",
"    9 < 9 9 9 t t g k M I I I M I I I I I I I M : < 9 9 9 9 t $ + + $ : + +     ",
"    9 < t t t t t t t 9 t g t 9 t k M k M M g : $ $ 9 k k g g : < < < $ . +     ",
"    t t 9 t 9 < 9 t t < < $ + < t 9 t k k 9 < : : 9 k M M g k g g 9 t M + $     ",
"    t t 9 9 < < 9 t t t < + . $ 9 9 k G I k < $ < g k M M M G g k ) *.} + +     ",
"    g t 9 < $ + : t t t t $ . $ < 9 k G G k : . : g k D D M M ) &.;.4.| + :     ",
"    t t 9 < $ . + < 9 t t $ . + < 9 t t g t $ $ t M M D D t 9 *.2.1.5.-.9 9     ",
"    t t 9 d : . + $ $ < 9 $ . + + $ t t g t 9 t k M M t : + $ *.7.u.a.0.9 <     ",
"    $ < 9 t : . + : $ : $ $ + . . . + $ : $ 9 t G ' [ + . + $ e.c.z.d.9.< $     ",
"    + . $ < : . + 9 < : : $ : + + . . + . + g ` &.;.+.$ + + : j.n.l.w.] + +     ",
"    + . . . . . + j j 9 < : : $ : + + . + + { :.1.1.+.: : + $ g.f.O.k < + +     ",
"    + . . + . . + 9 d 9 j 9 < : $ : $ $ + +  .1.7.u.y.j 5 + < ( I g g 9 + +     ",
"    + . . . . + + < 9 t d 9 t : + $ $ : + + @.8.l.n.h.j < 9 t k M k M t + $     ",
"    + . + . + + + < < t t t t $ . + + $ + $ q.s.c.v.$.g g g g M M M G t + $     ",
"    + . + . . $ : 9 9 t t t t : . + . . + $ r.p.t.O.D g g k k D D D M 9 : <     ",
"    + . + + $ + : t t t t t g 9 : + . . + $ #.X.k g g g k M M M D t : $ : :     ",
"    $ . + + : : : t t t t t t 9 < : . . : 9 g t g g k M M M G k g < + + < g     ",
"    + $ + $ : < 9 t t t t t d t < : . + t g g g g g k M M M D k g < + 9 M M     ",
"    $ $ $ $ $ : 9 t t 9 t d d t t < . + t t g M k g k M M k D g t < t k M G     ",
"      $ + + + . $ t 9 9 < 9 t t t < . . 9 < k G k k M M M D D 9 + 9 g k M       ",
"          $ + . + < 9 9 < 9 t t t < + . : : g k M M M G G M M : . < g           ",
"              + + < < 9 9 t t t t 9 + + : $ 9 g k M M M M M M < +               ",
"                  < 9 t t t g t t 9 < : $ + 9 g g k k M M M M                   ",
"                      t t t t t 9 9 < < + + < : 9 g k G G                       ",
"                          g t t < < < < + . + + : g k                           ",
"                              9 9 < 9 < + + + + :                               ",
"                                  < < < + + +                                   ",
"                                      : $                                       "
};
