/* XPM */
static char *ffce243361794d32d22e94adc003eac69C7Xx3QAvPIC4ZwE[] = {
/* columns rows colors chars-per-pixel */
"40 40 207 2 ",
"   c None",
".  c #003A07",
"X  c #034C0C",
"o  c #074907",
"O  c #05530C",
"+  c #0A550A",
"@  c #0B5D0C",
"#  c #135B0B",
"$  c #014D12",
"%  c #004A17",
"&  c #015112",
"*  c #02551A",
"=  c #015A1B",
"-  c #025816",
";  c #165C15",
":  c #15660E",
">  c #1A6C0E",
",  c #096812",
"<  c #166E17",
"1  c #0C7419",
"2  c #0C7A18",
"3  c #147D19",
"4  c #216711",
"5  c #237F16",
"6  c #31771C",
"7  c #005326",
"8  c #025C2C",
"9  c #026B22",
"0  c #066827",
"q  c #00752E",
"w  c #027B2D",
"e  c #0C7426",
"r  c #046831",
"t  c #017837",
"y  c #237F20",
"u  c #1A8214",
"i  c #1E9B1B",
"p  c #248D16",
"a  c #299219",
"s  c #1CA61D",
"d  c #098929",
"f  c #048A39",
"g  c #118B36",
"h  c #169D31",
"j  c #299226",
"k  c #339834",
"l  c #19AE35",
"z  c #14AC34",
"x  c #22AD2B",
"c  c #38A526",
"v  c #22B62C",
"b  c #31AE31",
"n  c #53AC34",
"m  c #5AB82E",
"M  c #2DCC2F",
"N  c #39D936",
"B  c #43D63D",
"V  c #068242",
"C  c #189A43",
"Z  c #0E9D53",
"A  c #0C984C",
"S  c #1EB94D",
"D  c #02AD57",
"F  c #04A25B",
"G  c #15AD56",
"H  c #02B45A",
"J  c #18B75F",
"K  c #36BA40",
"L  c #20BC5B",
"P  c #33B14C",
"I  c #07BD64",
"U  c #12BC61",
"Y  c #07C558",
"T  c #1ED856",
"R  c #22C440",
"E  c #29D14B",
"W  c #25C05C",
"Q  c #20DD58",
"!  c #3ACC47",
"~  c #2FE24E",
"^  c #34E156",
"/  c #00C36C",
"(  c #06CD75",
")  c #1BD274",
"_  c #1DCA68",
"`  c #21CB74",
"'  c #2ED970",
"]  c #38D269",
"[  c #0CEF7E",
"{  c #13E676",
"}  c #2BED7D",
"|  c #36F27C",
" . c #42D74C",
".. c #42F75C",
"X. c #75EE5E",
"o. c #50D962",
"O. c #59CA64",
"+. c #6ADD69",
"@. c #44E768",
"#. c #47FC61",
"$. c #48ED70",
"%. c #51F97C",
"&. c #4FEE6D",
"*. c #8BEC6A",
"=. c #2DDC83",
"-. c #0BE08A",
";. c #14E68A",
":. c #04EA9C",
">. c #1DE894",
",. c #0DF293",
"<. c #36EA8A",
"1. c #2BF480",
"2. c #2BF898",
"3. c #3BF394",
"4. c #34FE96",
"5. c #29E18A",
"6. c #09FFAE",
"7. c #17FCA6",
"8. c #01F5BF",
"9. c #07FCB9",
"0. c #13FFB1",
"q. c #17FFBE",
"w. c #3AEEA6",
"e. c #21FDAB",
"r. c #3AFEA4",
"t. c #32FFAD",
"y. c #3CFFA9",
"u. c #36FFA7",
"i. c #25FEB4",
"p. c #25FFBE",
"a. c #2CFFBC",
"s. c #37FFB5",
"d. c #36FFBB",
"f. c #39FDB0",
"g. c #53E58E",
"h. c #4AFE8E",
"j. c #46F885",
"k. c #55FF84",
"l. c #44F49C",
"z. c #4AF794",
"x. c #50FE94",
"c. c #43FEA3",
"v. c #46FEAB",
"b. c #54FFA4",
"n. c #56FFA9",
"m. c #4CFEB2",
"M. c #4BFFBB",
"N. c #44FFB6",
"B. c #52FEBB",
"V. c #76FDA3",
"C. c #60FAB7",
"Z. c #05FFCD",
"A. c #05FFC2",
"S. c #14FDC6",
"D. c #1DFFC2",
"F. c #1CFFCB",
"G. c #15FFCF",
"H. c #0AFFD4",
"J. c #03FFDC",
"K. c #07FFD9",
"L. c #15FFD1",
"P. c #1AFFD4",
"I. c #14FFDB",
"U. c #1AFFDD",
"Y. c #26FFC2",
"T. c #29FEC1",
"R. c #22FFCB",
"E. c #2CFFCC",
"W. c #34FFC4",
"Q. c #3AFFC8",
"!. c #25FFD2",
"~. c #2EFFD4",
"^. c #24FFDB",
"/. c #2EFFDA",
"(. c #34FFD1",
"). c #0CFFE5",
"_. c #05FFED",
"`. c #0BFFEC",
"'. c #04FFE7",
"]. c #16FFE5",
"[. c #1CFFE3",
"{. c #11FFEA",
"}. c #1BFFEC",
"|. c #05FFF2",
" X c #0AFFF3",
".X c #07FFFA",
"XX c #0CFFFC",
"oX c #12FFF3",
"OX c #1BFFF3",
"+X c #1BFFFC",
"@X c #24FFE5",
"#X c #2BFFE3",
"$X c #23FFE8",
"%X c #39FFE6",
"&X c #22FFF3",
"*X c #2CFFF4",
"=X c #22FFFB",
"-X c #3BFFF3",
";X c #4CFEC3",
":X c #44FFC3",
">X c #5DFDC5",
",X c #41FDD2",
"<X c #44FFDD",
"1X c #63FAC4",
"2X c #5BFFE2",
"3X c #4FFFF7",
"4X c #60FFF1",
/* pixels */
"                                                                                ",
"                                                                                ",
"                                                                                ",
"                                                                                ",
"                                                                                ",
"                                                                                ",
"                                                                                ",
"                                                                                ",
"                                                                                ",
"                                                                                ",
"                            + O O * 7 = * ; ; 4 4 :                             ",
"                          + 1 d w q t f g k n m c <                             ",
"                          3 l Y Y I Y ` ] +.*.X.! g                             ",
"                        = h Q [ ,.>.2.3.z.V.V.x.1.U t                           ",
"                      X 9 S } 7.p.d.y.t.y.M.:XT.i.;.F 8                         ",
"                    X * f ' l.d.(.(.E.p.7.i.T.P.P.7.( t % $ .                   ",
"                  o $ e L l.B.Q.(./.^.S.6.0.D.I.Z.0.-.D f q $ .                 ",
"                o o < P g.>X,X/.#X$X].H.A.A.P.].Z.6.7.-.( H q $                 ",
"                o : c o.C.2X%X#XOXoX`.'.Z.Z.{.OXH.9.S.S.8.:.D 9                 ",
"                o 3 B %.M.<X#X].{..X.X_.K.J. XOX{.J.`.OX'.A./ q                 ",
"                # a B %.r.W.R.H.`.|..X_.'.|..XoXoX.XXX+XoXA.H r                 ",
"                  a N ..h.f.T.L.).`..X_.'.|._.{.&X+XXX+XU.:.D 7                 ",
"                  u M ..k.m.~.$X}.oX`.).H.).`.I.@X*X=X*XY.{ z 7                 ",
"                  1 s ~ %.B.#X&X&X].].I.L.U.U.P.!.%X-X%Xr.T d &                 ",
"                  O 3 l $.;X*XOX[.!.^.^.R.q.D.D.F./.(.;Xj.R 1                   ",
"                  o # j o.1X3X3X~.a.W.E.i.7.7.0.S.R.f.j...v ,                   ",
"                      6 O.1X4X2X;Xd.f.t.r.4.2.i.p.e.} ^ N s @                   ",
"                        P v.,X;Xm.m.r.y.c.b.v.v.c.| E x i u O                   ",
"                        C ` >.5.<.3.3.v.v.n.b.h.$. .b p : @                     ",
"                          A Z Z G J ` =.g.z.j.o.b j p > O o                     ",
"                              8 r r V A G L S k j                               ",
"                                    7 8 0 e e                                   ",
"                                                                                ",
"                                                                                ",
"                                                                                ",
"                                                                                ",
"                                                                                ",
"                                                                                ",
"                                                                                ",
"                                                                                "
};
