/* XPM */
static char *_4307207fd454f30a528ade036460112AZ7dRgFBdHPlAJCo[] = {
/* columns rows colors chars-per-pixel */
"40 40 209 2 ",
"   c None",
".  c #00330C",
"X  c #043C16",
"o  c #07490A",
"O  c #05540B",
"+  c #0A520E",
"@  c #085B09",
"#  c #044C13",
"$  c #044111",
"%  c #045413",
"&  c #03571B",
"*  c #0A7E0E",
"=  c #0D6B14",
"-  c #076317",
";  c #136B19",
":  c #156C14",
">  c #0A7F13",
",  c #0A751D",
"<  c #1C7F1D",
"1  c #177119",
"2  c #09680C",
"3  c #025522",
"4  c #0B5620",
"5  c #125D23",
"6  c #0C6D23",
"7  c #086625",
"8  c #156923",
"9  c #077A29",
"0  c #1C7D2A",
"q  c #1D7F20",
"w  c #0E6F30",
"e  c #037C32",
"r  c #137B30",
"t  c #0B8311",
"y  c #0CAD1B",
"u  c #0EB61F",
"i  c #10822D",
"p  c #1C8E22",
"a  c #13952F",
"s  c #068631",
"d  c #0D8C34",
"f  c #078635",
"g  c #188938",
"h  c #0D9833",
"j  c #1C9431",
"k  c #1B9E3B",
"l  c #218223",
"z  c #24932B",
"x  c #17A427",
"c  c #0DB02B",
"v  c #0BA539",
"b  c #23A62D",
"n  c #2DB739",
"m  c #27A93A",
"M  c #15C136",
"N  c #12DA35",
"B  c #1BE03F",
"V  c #069B40",
"C  c #119C47",
"Z  c #08A749",
"A  c #12AB4E",
"S  c #0DB84F",
"D  c #19BC45",
"F  c #10B64C",
"G  c #02BD5B",
"H  c #0CB851",
"J  c #24A245",
"K  c #32AF47",
"L  c #26BA4D",
"P  c #35B444",
"I  c #36BC47",
"U  c #1CB869",
"Y  c #0CCE5D",
"T  c #1BC257",
"R  c #2FC446",
"E  c #23CC56",
"W  c #27D957",
"Q  c #3AD655",
"!  c #24E359",
"~  c #38E45A",
"^  c #0CD364",
"/  c #1BDB6E",
"(  c #17D06A",
")  c #16CC70",
"_  c #39CA61",
"`  c #2CD361",
"'  c #17EA7B",
"]  c #13EE79",
"[  c #3BE56A",
"{  c #22EF70",
"}  c #35E874",
"|  c #2AF67D",
" . c #3AF677",
".. c #29F663",
"X. c #4CD24D",
"o. c #41E35D",
"O. c #47DD6E",
"+. c #48E16A",
"@. c #42EB71",
"#. c #50ED7A",
"$. c #41F279",
"%. c #2BD28C",
"&. c #3EDF9B",
"*. c #0CE98D",
"=. c #16EF89",
"-. c #0DF986",
";. c #19F888",
":. c #1CEF94",
">. c #09FD9A",
",. c #1BFA9F",
"<. c #1AF697",
"1. c #32E383",
"2. c #2DFD83",
"3. c #28FB88",
"4. c #35FD8C",
"5. c #3EFE8D",
"6. c #36FC82",
"7. c #22FE90",
"8. c #3CF991",
"9. c #38FF9B",
"0. c #31FE94",
"q. c #0BFDA1",
"w. c #16F8A7",
"e. c #0BFFBB",
"r. c #1BFAB9",
"t. c #15E8A5",
"y. c #2EEEAA",
"u. c #22FFAE",
"i. c #28FCA8",
"p. c #39FDA5",
"a. c #3AFFAB",
"s. c #33F9A0",
"d. c #27FFB3",
"f. c #29FFB4",
"g. c #2CFFBB",
"h. c #26FFB8",
"j. c #39FEB9",
"k. c #32FFBA",
"l. c #45EB84",
"z. c #43FA8C",
"x. c #46F98A",
"c. c #5BF585",
"v. c #4FFA96",
"b. c #44FC9B",
"n. c #53FA96",
"m. c #71FB9C",
"M. c #4BFFA9",
"N. c #55FBA2",
"B. c #5AF7A4",
"V. c #44FFBE",
"C. c #4BFFBD",
"Z. c #4CFFB7",
"A. c #56FFB9",
"S. c #0CFFC1",
"D. c #0AFFC9",
"F. c #07FFCD",
"G. c #12FFC4",
"H. c #1AFCC4",
"J. c #1CFECA",
"K. c #13FFCE",
"L. c #06FFD3",
"P. c #0DFFD2",
"I. c #05FFDB",
"U. c #0BFFD8",
"Y. c #12FFDE",
"T. c #19FFDB",
"R. c #2AFFC3",
"E. c #23FDC7",
"W. c #3EFFCB",
"Q. c #35FFC0",
"!. c #25FFDC",
"~. c #28FFD3",
"^. c #3BFFD0",
"/. c #06FFE4",
"(. c #0BFFE4",
"). c #05FFED",
"_. c #0EFFEB",
"`. c #12FFE3",
"'. c #1AFEE3",
"]. c #11FFEC",
"[. c #1DFFEC",
"{. c #07FFF5",
"}. c #0BFFF5",
"|. c #0AFFFA",
" X c #14FFF3",
".X c #1FFFF7",
"XX c #15FFFA",
"oX c #1BFFFB",
"OX c #25FFE1",
"+X c #36FFE0",
"@X c #26FFF5",
"#X c #22FFFD",
"$X c #2CFFFB",
"%X c #33FFF6",
"&X c #3DFFF1",
"*X c #49FFC2",
"=X c #47FFCF",
"-X c #51FFC8",
";X c #48FEDA",
":X c #5AFFD3",
">X c #6BFFC4",
",X c #75FFDE",
"<X c #42FFE6",
"1X c #5CFFE4",
"2X c #45FFFD",
"3X c #59FFFC",
"4X c #67FFE7",
"5X c #70FFE9",
"6X c #69FFF7",
/* pixels */
"                                                                                ",
"                                                                                ",
"                                                                                ",
"                                                                                ",
"                                                                                ",
"                                                                                ",
"                                                                                ",
"                                                                                ",
"                                                                                ",
"                                  + = t t @                                     ",
"                            o % ; p x u y t O                                   ",
"                          # , a P X.! N N c 9 6 ; :                             ",
"                          - h W #.n.5. ...! E L n x r 7                         ",
"                          6 D } M.C.V.M.8.z.x. .~ D V f s                       ",
"                        X r ` n.-X=X=XZ.a.p.9.4.' ^ G G S d                     ",
"                        5 J l.A.*Xg.Q.j.j.u.<.;.{ ' *.*./ C                     ",
"                      0 K O.B.-XW.h.u.h.R.u.;.] ] w.H.E.y.U                     ",
"                    l R @.v.C.^.~.J.e.S.G.r.w.=.<.e.OX2X;X%.w                   ",
"                    j E 3.a.k.J.T.Y.U.L.F.D.S.H.J.T.$X3X5X&.g o                 ",
"                    f Y 7.k.R.P.(.]./.I.L.L./._.[.%X2X6X5XB.P 1                 ",
"                  + s ^ i.W.!./.].XX}.)./.).{.|.#X$X&X6X5Xm.X.<                 ",
"                  - v ' j.;X@X].XXoX|.).).{.|.XX#X#X%X1X>Xc.P :                 ",
"                @ t n 3.Z.&X@XXXoX#X X/./.).}.@X@X$X&X:XB._ 0                   ",
"                @ t c  .Z.+X[.]..XoX].U.D.F.'.!.!.OX;XA.1.C +                   ",
"                o 2 x ~ 5.R.T.(.XXoX/.e.q.w.g.f.i.h.*Xs.U 7                     ",
"                    l R / 7.H.`.XX XD.>.-.3.0.7.7.9.b.' Z 3                     ",
"                      j Z / r.[.#X[.S.>.;.6.2.3.8.x.} H e                       ",
"                        w S :.!.#X XK.u.b.5.2.6. .[ L e 3                       ",
"                        3 d ) r.'.Y.~.C.N.x.$.[ W R g 3                         ",
"                        & - g ) t.w.s.n.c.+.I J C z 8                           ",
"                          # @ i A T Q [ Q m 8 4 8 8                             ",
"                            . + ; < z b b , $                                   ",
"                                      = - % .                                   ",
"                                                                                ",
"                                                                                ",
"                                                                                ",
"                                                                                ",
"                                                                                ",
"                                                                                ",
"                                                                                "
};
