/* XPM */
static char *result[] = {
/* columns rows colors chars-per-pixel */
"40 40 217 2 ",
"   c #090000",
".  c #0A0000",
"X  c #0B0000",
"o  c #0C0000",
"O  c #0D0000",
"+  c #0C0100",
"@  c #0D0100",
"#  c #0E0000",
"$  c #0F0000",
"%  c #0E0100",
"&  c #0F0100",
"*  c #0F0200",
"=  c #100000",
"-  c #110000",
";  c #100100",
":  c #110100",
">  c #120000",
",  c #130000",
"<  c #100200",
"1  c #110301",
"2  c #120200",
"3  c #120301",
"4  c #130301",
"5  c #140000",
"6  c #150000",
"7  c #150100",
"8  c #160000",
"9  c #170000",
"0  c #160100",
"q  c #170101",
"w  c #140300",
"e  c #150300",
"r  c #170302",
"t  c #140400",
"y  c #150500",
"u  c #160700",
"i  c #170701",
"p  c #140703",
"a  c #140704",
"s  c #180000",
"d  c #190000",
"f  c #1A0000",
"g  c #1B0000",
"h  c #1A0100",
"j  c #1A0200",
"k  c #1B0300",
"l  c #1A0201",
"z  c #1C0000",
"x  c #1D0000",
"c  c #1D0100",
"v  c #1E0000",
"b  c #1F0000",
"n  c #1E0100",
"m  c #1F0100",
"M  c #1D0200",
"N  c #1C0300",
"B  c #1D0300",
"V  c #1C0201",
"C  c #1F0200",
"Z  c #1E0300",
"A  c #1F0300",
"S  c #190500",
"D  c #180600",
"F  c #1B0600",
"G  c #1F0400",
"H  c #1F0500",
"J  c #1C0600",
"K  c #1D0600",
"L  c #1E0600",
"P  c #180800",
"I  c #1C0800",
"U  c #1D0800",
"Y  c #1D0900",
"T  c #1E0800",
"R  c #1E0900",
"E  c #1F0900",
"W  c #1E0E02",
"Q  c #200000",
"!  c #210000",
"~  c #200100",
"^  c #220000",
"/  c #230000",
"(  c #220100",
")  c #220200",
"_  c #230300",
"`  c #240000",
"'  c #250000",
"]  c #240100",
"[  c #260000",
"{  c #270000",
"}  c #240300",
"|  c #260200",
" . c #210400",
".. c #220501",
"X. c #240400",
"o. c #270600",
"O. c #270402",
"+. c #280000",
"@. c #290000",
"#. c #290100",
"$. c #2A0000",
"%. c #2B0000",
"&. c #2A0100",
"*. c #280200",
"=. c #290300",
"-. c #2A0200",
";. c #2C0000",
":. c #2D0000",
">. c #2D0100",
",. c #2E0000",
"<. c #2F0000",
"1. c #2C0200",
"2. c #2E0200",
"3. c #2F0200",
"4. c #290400",
"5. c #290500",
"6. c #2A0400",
"7. c #2A0500",
"8. c #290600",
"9. c #290700",
"0. c #280703",
"q. c #200800",
"w. c #270A00",
"e. c #280800",
"r. c #290900",
"t. c #2B0800",
"y. c #2A0801",
"u. c #280A00",
"i. c #280B00",
"p. c #280C00",
"a. c #2F0E00",
"s. c #300000",
"d. c #310000",
"f. c #300100",
"g. c #310100",
"h. c #320000",
"j. c #320100",
"k. c #320200",
"l. c #320300",
"z. c #310400",
"x. c #310500",
"c. c #310600",
"v. c #300700",
"b. c #310704",
"n. c #310800",
"m. c #310900",
"M. c #310A00",
"N. c #310B00",
"B. c #310C00",
"V. c #300D00",
"C. c #310D00",
"Z. c #300E00",
"A. c #300F00",
"S. c #490E02",
"D. c #491002",
"F. c #4C1002",
"G. c #401F0F",
"H. c #541102",
"J. c #5C1803",
"K. c #661C03",
"L. c #42240F",
"P. c #512C12",
"I. c #533217",
"U. c #52361B",
"Y. c #6F2004",
"T. c #742104",
"R. c #7B2304",
"E. c #7B2404",
"W. c #7E2E0A",
"Q. c #7E320C",
"!. c #7F3F14",
"~. c #63421B",
"^. c #7D6933",
"/. c #812404",
"(. c #802504",
"). c #822404",
"_. c #802605",
"`. c #A23006",
"'. c #A33106",
"]. c #A73105",
"[. c #A53106",
"{. c #A63106",
"}. c #AA3205",
"|. c #A93206",
" X c #A93306",
".X c #AA3306",
"XX c #AD430F",
"oX c #AB4612",
"OX c #AE4914",
"+X c #896429",
"@X c #8B652A",
"#X c #8D6629",
"$X c #90662A",
"%X c #91652C",
"&X c #906D2D",
"*X c #927233",
"=X c #947B39",
"-X c #B76623",
";X c #B66D29",
":X c #BD7F35",
">X c #BE923C",
",X c #C18C38",
"<X c #C5993F",
"1X c #958742",
"2X c #9B8642",
"3X c #9B8F45",
"4X c #9D9248",
"5X c #BFA24A",
"6X c #C79B40",
"7X c #C39E46",
"8X c #C7AA4D",
"9X c #CAAE50",
"0X c #CAB054",
"qX c #C6B95B",
"wX c #D0C561",
"eX c #D2C762",
"rX c None",
/* pixels */
"rXrXrXrXrXrXrXrXrXrXrXrXrXrXrXrXrXrXrXh.h.rXrXrXrXrXrXrXrXrXrXrXrXrXrXrXrXrXrXrX",
"rXrXrXrXrXrXrXrXrXrXrXrXrXrXrXrXrX@.:.d.h.h.h.rXrXrXrXrXrXrXrXrXrXrXrXrXrXrXrXrX",
"rXrXrXrXrXrXrXrXrXrXrXrXrXrXrX6 ! { ' b / ,.d.+.8 rXrXrXrXrXrXrXrXrXrXrXrXrXrXrX",
"rXrXrXrXrXrXrXrXrXrXrXrXrX[ 6 = - 9 5 = = d v , = , b rXrXrXrXrXrXrXrXrXrXrXrXrX",
"rXrXrXrXrXrXrXrXrXrXrXc.j.h.$.d - = = , s g g s 6 ! +.{ v rXrXrXrXrXrXrXrXrXrXrX",
"rXrXrXrXrXrXrXrXrXA.A.Z.n.>.! z f 5 9 g z z d > = 6 v d - = = rXrXrXrXrXrXrXrXrX",
"rXrXrXrXrXrXrXZ.A.A.A.M.l.d.$.b 6 - > d x z g s 8 s g f 9 , = = - rXrXrXrXrXrXrX",
"rXrXrXrXrXh.j.x.N.Z.A.V.c.f.%.+.Q 8 f ' [ ^ ! ` { ` ! ^ [ ` g 6 s z z rXrXrXrXrX",
"rXrXrX+.@.:.d.h.j.z.M.N.x.d.:.[ x 5 9 ^ %.<.s.:.$.:.s.<.$.+.+.[ ^ z 8 - = rXrXrX",
"rXrX6 b +.:.d.h.h.h.j.j.h.,.^ 5 = = 8 ! %.<.h.h.d.h.h.<.$.+.+.{ ^ z 6 - # o rXrX",
"rXrXO # 8 [ s.s.;.:.d.<.+.x 5 - , d ! { @.:.h.h.h.h.h.:.@.@.:.;.^ x g 5 . . rXrX",
"rXrXO O O # 8 Q [ ' v d f g s , 9 g b @.d.h.j.x.m.z.j.k.v.v.k.d.%.v d 5 . o rXrX",
"rXrXO O # O o # 8 d - = 6 s > = 6 ` <.h.h.h.z.C.A.B.z.m.A.a.t.] Q z d 8 > 9 rXrX",
"rXrXO O , > $ O > Q x z z z s 8 +.h.h.<.<.h.h.2.8.3.h.g.7.X.~ b b z z z d d rXrX",
"rXrXO O , 9 f s 6 ! / +.[ z > = 8 / @.+.+.@.[ b z b / Q g v b v z x b x d f rXrX",
"rXrXO # y.A f ^ ^ [ ` @.$./ z 6 9 g x ' ' x z z s $ $ s f v b g d z b x x v rXrX",
"rXrXO & Y.(.D.*./ $.#.5.-.` ^ s - d [ <.<.[ z f >   $ f z b b g s f g g v v rXrX",
"rXrX, : T..X`./.S.@.&.u.u.| / 9 o , [ :.;.' g d >   = v b b v 8 # , d g v v rXrX",
"rXrXf l !.XX{.}.(.j ~ w.p.=.@.v = , ! ^ Q b g 9 $   - b b z 9 O   > h N v v rXrX",
"rXrXd V @X,X;XOX_.2 # e q.6.@.[ b f b ^ b z > o . . - g 9 5 , o . w T L v x rXrX",
"rXrX- q +X6X8X0X%X4 O o : J.H.1.Q z = 8 5 O . . . O > 5 5 5 7 @ . y E K s = rXrX",
"rXrXO O L.$X5XeX4Xp O % ; E.[.).F.) O o . . . O - 5 5 5 0 S I * . t D < X . rXrX",
"rXrXO O d O.I.2X1Xa % u i W. X].'.K.& o X O - 5 5 5 0 S U R Y * . + X . . . rXrX",
"rXrXO O z ^ / b.G.r & P W =X:XoX|.R.; O - 5 5 5 6 d B R R R J % . . . . . . rXrX",
"rXrXO O Q { { $.{ ! c F W 3XwX7X-XQ.; # , 5 > $ 6 v Z R L k d # . . . . . . rXrX",
"rXrX= # ! %.4.9.*.^ ^ ^ ..^.qX9X<X#X1 # > $ X . 5 v n C v d s $ # O . . . . rXrX",
"rXrX9 5 x @.8.p.e.[ / ^ ^ 0.U.*X>X&X1 O X . . . 8 b b b v g z 5 - O . X . . rXrX",
"rXrX9 9 - 5  .p.r.$.@.[ / ^ Q O.P.~.3 o . . # 6 g b b b b b b 5 - = $ $ . . rXrX",
"rXrX! f = o 9 } o.&.$.$.@.` ^ ^ Q ( z , X . 6 d z C A b b b b 9 9 5 - $ X O rXrX",
"rXrX$.+.g = 9 ^ } e.4.$.$.` ^ ` / ^ / b O . 6 f B T L b b b b f d 6 - = = - rXrX",
"rXrX$.$.' b f v _ p.i.-.$.` ^ [ @.` Q b O . 9 b H R L x g b b f 8 > - - - - rXrX",
"rXrXrX$.` ^ d $ j u.i.-.$.+.' [ %.' d f o . d b G L M d f v v , X # - - - rXrXrX",
"rXrXrXrXrX^ s o 5 #.5.&.$.$.$.{ +.` s 6 X . d b m b x d f z d # . # - rXrXrXrXrX",
"rXrXrXrXrXrXrXo 6 @.$.$.$.@.$.[ ^ v 5 6 o $ g b b b v z x f s # . rXrXrXrXrXrXrX",
"rXrXrXrXrXrXrXrXrX@.$.$.$.' [ ` ^ z # = 6 d x b b b b b v f d rXrXrXrXrXrXrXrXrX",
"rXrXrXrXrXrXrXrXrXrXrX$.$.` ^ f 9 d O # s d z z x b b b v rXrXrXrXrXrXrXrXrXrXrX",
"rXrXrXrXrXrXrXrXrXrXrXrXrX` ^ 9 O # O # s d d d z b b rXrXrXrXrXrXrXrXrXrXrXrXrX",
"rXrXrXrXrXrXrXrXrXrXrXrXrXrXrX8 O O O # s d d d g rXrXrXrXrXrXrXrXrXrXrXrXrXrXrX",
"rXrXrXrXrXrXrXrXrXrXrXrXrXrXrXrXrXO O # s d d rXrXrXrXrXrXrXrXrXrXrXrXrXrXrXrXrX",
"rXrXrXrXrXrXrXrXrXrXrXrXrXrXrXrXrXrXrX$ 9 rXrXrXrXrXrXrXrXrXrXrXrXrXrXrXrXrXrXrX"
};
